<mxfile host="Electron" agent="Mozilla/5.0 (Windows NT 10.0; Win64; x64) AppleWebKit/537.36 (KHTML, like Gecko) draw.io/26.2.2 Chrome/134.0.6998.178 Electron/35.1.2 Safari/537.36" version="26.2.2">
  <diagram name="Página-1" id="2S8ASHhXn2gX1TYYLct_">
    <mxGraphModel dx="1896" dy="913" grid="1" gridSize="10" guides="1" tooltips="1" connect="1" arrows="1" fold="1" page="1" pageScale="1" pageWidth="1169" pageHeight="827" math="0" shadow="0">
      <root>
        <mxCell id="0" />
        <mxCell id="1" parent="0" />
        <mxCell id="5BbxJ8q-scUD9Lfmh44J-1" value="" style="rounded=0;whiteSpace=wrap;html=1;" vertex="1" parent="1">
          <mxGeometry x="200" y="40" width="730" height="710" as="geometry" />
        </mxCell>
        <mxCell id="5BbxJ8q-scUD9Lfmh44J-2" value="Sistema de reserva de livros" style="text;html=1;align=center;verticalAlign=middle;whiteSpace=wrap;rounded=0;" vertex="1" parent="1">
          <mxGeometry x="498" y="40" width="172.5" height="30" as="geometry" />
        </mxCell>
        <mxCell id="5BbxJ8q-scUD9Lfmh44J-9" style="edgeStyle=orthogonalEdgeStyle;rounded=0;orthogonalLoop=1;jettySize=auto;html=1;entryX=1;entryY=0.5;entryDx=0;entryDy=0;" edge="1" parent="1" source="5BbxJ8q-scUD9Lfmh44J-3" target="5BbxJ8q-scUD9Lfmh44J-7">
          <mxGeometry relative="1" as="geometry">
            <Array as="points">
              <mxPoint x="870" y="260" />
              <mxPoint x="870" y="185" />
            </Array>
          </mxGeometry>
        </mxCell>
        <mxCell id="5BbxJ8q-scUD9Lfmh44J-3" value="Funcionário" style="shape=umlActor;verticalLabelPosition=bottom;verticalAlign=top;html=1;" vertex="1" parent="1">
          <mxGeometry x="1020" y="250" width="30" height="60" as="geometry" />
        </mxCell>
        <mxCell id="5BbxJ8q-scUD9Lfmh44J-4" value="Cliente" style="shape=umlActor;verticalLabelPosition=bottom;verticalAlign=top;html=1;" vertex="1" parent="1">
          <mxGeometry x="110" y="230" width="30" height="60" as="geometry" />
        </mxCell>
        <mxCell id="5BbxJ8q-scUD9Lfmh44J-5" value="Solicitar livro" style="ellipse;whiteSpace=wrap;html=1;" vertex="1" parent="1">
          <mxGeometry x="300" y="290" width="140" height="70" as="geometry" />
        </mxCell>
        <mxCell id="5BbxJ8q-scUD9Lfmh44J-6" value="Consultar disponibilidade do livro no estoque" style="ellipse;whiteSpace=wrap;html=1;" vertex="1" parent="1">
          <mxGeometry x="510" y="344" width="140" height="70" as="geometry" />
        </mxCell>
        <mxCell id="5BbxJ8q-scUD9Lfmh44J-7" value="Entrega do livro" style="ellipse;whiteSpace=wrap;html=1;" vertex="1" parent="1">
          <mxGeometry x="570" y="150" width="140" height="70" as="geometry" />
        </mxCell>
        <mxCell id="5BbxJ8q-scUD9Lfmh44J-8" value="Devolução do livro" style="ellipse;whiteSpace=wrap;html=1;" vertex="1" parent="1">
          <mxGeometry x="550" y="240" width="140" height="70" as="geometry" />
        </mxCell>
        <mxCell id="5BbxJ8q-scUD9Lfmh44J-10" style="edgeStyle=orthogonalEdgeStyle;rounded=0;orthogonalLoop=1;jettySize=auto;html=1;entryX=0.964;entryY=0.643;entryDx=0;entryDy=0;entryPerimeter=0;" edge="1" parent="1" source="5BbxJ8q-scUD9Lfmh44J-3" target="5BbxJ8q-scUD9Lfmh44J-8">
          <mxGeometry relative="1" as="geometry">
            <Array as="points">
              <mxPoint x="870" y="260" />
              <mxPoint x="870" y="285" />
            </Array>
          </mxGeometry>
        </mxCell>
        <mxCell id="5BbxJ8q-scUD9Lfmh44J-13" value="" style="endArrow=classic;html=1;rounded=0;exitX=0;exitY=1;exitDx=0;exitDy=0;exitPerimeter=0;entryX=1;entryY=0;entryDx=0;entryDy=0;" edge="1" parent="1" source="5BbxJ8q-scUD9Lfmh44J-3" target="5BbxJ8q-scUD9Lfmh44J-6">
          <mxGeometry width="50" height="50" relative="1" as="geometry">
            <mxPoint x="560" y="470" as="sourcePoint" />
            <mxPoint x="610" y="420" as="targetPoint" />
          </mxGeometry>
        </mxCell>
        <mxCell id="5BbxJ8q-scUD9Lfmh44J-14" value="" style="endArrow=classic;html=1;rounded=0;entryX=0;entryY=0.5;entryDx=0;entryDy=0;" edge="1" parent="1" source="5BbxJ8q-scUD9Lfmh44J-4" target="5BbxJ8q-scUD9Lfmh44J-5">
          <mxGeometry width="50" height="50" relative="1" as="geometry">
            <mxPoint x="361" y="309" as="sourcePoint" />
            <mxPoint x="150" y="519" as="targetPoint" />
          </mxGeometry>
        </mxCell>
        <mxCell id="5BbxJ8q-scUD9Lfmh44J-18" value="" style="endArrow=block;dashed=1;endFill=0;endSize=12;html=1;rounded=0;exitX=1;exitY=1;exitDx=0;exitDy=0;entryX=0;entryY=0.5;entryDx=0;entryDy=0;" edge="1" parent="1" source="5BbxJ8q-scUD9Lfmh44J-5" target="5BbxJ8q-scUD9Lfmh44J-6">
          <mxGeometry width="160" relative="1" as="geometry">
            <mxPoint x="530" y="524.5" as="sourcePoint" />
            <mxPoint x="690" y="524.5" as="targetPoint" />
          </mxGeometry>
        </mxCell>
        <mxCell id="5BbxJ8q-scUD9Lfmh44J-19" value="&amp;lt;&amp;lt;Include&amp;gt;&amp;gt;" style="edgeLabel;html=1;align=center;verticalAlign=middle;resizable=0;points=[];" vertex="1" connectable="0" parent="5BbxJ8q-scUD9Lfmh44J-18">
          <mxGeometry x="-0.0666" y="-1" relative="1" as="geometry">
            <mxPoint as="offset" />
          </mxGeometry>
        </mxCell>
        <mxCell id="5BbxJ8q-scUD9Lfmh44J-20" value="Cadastro do cliente no sistema" style="ellipse;whiteSpace=wrap;html=1;" vertex="1" parent="1">
          <mxGeometry x="300" y="470" width="140" height="70" as="geometry" />
        </mxCell>
        <mxCell id="5BbxJ8q-scUD9Lfmh44J-21" value="" style="endArrow=classic;html=1;rounded=0;entryX=0.5;entryY=0;entryDx=0;entryDy=0;exitX=0;exitY=0.5;exitDx=0;exitDy=0;" edge="1" parent="1" source="5BbxJ8q-scUD9Lfmh44J-7" target="5BbxJ8q-scUD9Lfmh44J-5">
          <mxGeometry width="50" height="50" relative="1" as="geometry">
            <mxPoint x="150" y="277" as="sourcePoint" />
            <mxPoint x="490" y="445" as="targetPoint" />
            <Array as="points">
              <mxPoint x="490" y="160" />
            </Array>
          </mxGeometry>
        </mxCell>
        <mxCell id="5BbxJ8q-scUD9Lfmh44J-23" value="" style="endArrow=block;dashed=1;endFill=0;endSize=12;html=1;rounded=0;exitX=0.5;exitY=1;exitDx=0;exitDy=0;entryX=0.5;entryY=0;entryDx=0;entryDy=0;" edge="1" parent="1" source="5BbxJ8q-scUD9Lfmh44J-5" target="5BbxJ8q-scUD9Lfmh44J-20">
          <mxGeometry width="160" relative="1" as="geometry">
            <mxPoint x="314" y="291" as="sourcePoint" />
            <mxPoint x="585" y="535.5" as="targetPoint" />
          </mxGeometry>
        </mxCell>
        <mxCell id="5BbxJ8q-scUD9Lfmh44J-24" value="&amp;lt;&amp;lt;Include&amp;gt;&amp;gt;" style="edgeLabel;html=1;align=center;verticalAlign=middle;resizable=0;points=[];" vertex="1" connectable="0" parent="5BbxJ8q-scUD9Lfmh44J-23">
          <mxGeometry x="-0.0666" y="-1" relative="1" as="geometry">
            <mxPoint as="offset" />
          </mxGeometry>
        </mxCell>
        <mxCell id="5BbxJ8q-scUD9Lfmh44J-25" value="" style="endArrow=classic;html=1;rounded=0;entryX=0;entryY=0.5;entryDx=0;entryDy=0;" edge="1" parent="1" source="5BbxJ8q-scUD9Lfmh44J-4" target="5BbxJ8q-scUD9Lfmh44J-8">
          <mxGeometry width="50" height="50" relative="1" as="geometry">
            <mxPoint x="150" y="276" as="sourcePoint" />
            <mxPoint x="310" y="335" as="targetPoint" />
          </mxGeometry>
        </mxCell>
        <mxCell id="5BbxJ8q-scUD9Lfmh44J-26" value="Vincular coleta/devolução ao usuário" style="ellipse;whiteSpace=wrap;html=1;" vertex="1" parent="1">
          <mxGeometry x="570" y="550" width="140" height="70" as="geometry" />
        </mxCell>
        <mxCell id="5BbxJ8q-scUD9Lfmh44J-29" value="" style="endArrow=classic;html=1;rounded=0;exitX=0.333;exitY=1;exitDx=0;exitDy=0;exitPerimeter=0;entryX=0.964;entryY=0.286;entryDx=0;entryDy=0;entryPerimeter=0;" edge="1" parent="1" source="5BbxJ8q-scUD9Lfmh44J-3" target="5BbxJ8q-scUD9Lfmh44J-26">
          <mxGeometry width="50" height="50" relative="1" as="geometry">
            <mxPoint x="1030" y="320" as="sourcePoint" />
            <mxPoint x="739" y="340" as="targetPoint" />
          </mxGeometry>
        </mxCell>
        <mxCell id="5BbxJ8q-scUD9Lfmh44J-31" value="" style="endArrow=block;dashed=1;endFill=0;endSize=12;html=1;rounded=0;exitX=1;exitY=1;exitDx=0;exitDy=0;entryX=0.5;entryY=0;entryDx=0;entryDy=0;" edge="1" parent="1" source="5BbxJ8q-scUD9Lfmh44J-8" target="5BbxJ8q-scUD9Lfmh44J-26">
          <mxGeometry width="160" relative="1" as="geometry">
            <mxPoint x="700" y="304" as="sourcePoint" />
            <mxPoint x="700" y="414" as="targetPoint" />
          </mxGeometry>
        </mxCell>
        <mxCell id="5BbxJ8q-scUD9Lfmh44J-32" value="&amp;lt;&amp;lt;Include&amp;gt;&amp;gt;" style="edgeLabel;html=1;align=center;verticalAlign=middle;resizable=0;points=[];" vertex="1" connectable="0" parent="5BbxJ8q-scUD9Lfmh44J-31">
          <mxGeometry x="-0.0666" y="-1" relative="1" as="geometry">
            <mxPoint as="offset" />
          </mxGeometry>
        </mxCell>
        <mxCell id="5BbxJ8q-scUD9Lfmh44J-33" value="" style="endArrow=block;dashed=1;endFill=0;endSize=12;html=1;rounded=0;exitX=0.5;exitY=1;exitDx=0;exitDy=0;entryX=0;entryY=0.5;entryDx=0;entryDy=0;" edge="1" parent="1" target="5BbxJ8q-scUD9Lfmh44J-26">
          <mxGeometry width="160" relative="1" as="geometry">
            <mxPoint x="395" y="360" as="sourcePoint" />
            <mxPoint x="350" y="506" as="targetPoint" />
          </mxGeometry>
        </mxCell>
        <mxCell id="5BbxJ8q-scUD9Lfmh44J-34" value="&amp;lt;&amp;lt;Include&amp;gt;&amp;gt;" style="edgeLabel;html=1;align=center;verticalAlign=middle;resizable=0;points=[];" vertex="1" connectable="0" parent="5BbxJ8q-scUD9Lfmh44J-33">
          <mxGeometry x="-0.0666" y="-1" relative="1" as="geometry">
            <mxPoint as="offset" />
          </mxGeometry>
        </mxCell>
      </root>
    </mxGraphModel>
  </diagram>
</mxfile>
